<mxfile host="app.diagrams.net" agent="Mozilla/5.0 (Windows NT 10.0; Win64; x64) AppleWebKit/537.36 (KHTML, like Gecko) Chrome/131.0.0.0 Safari/537.36" version="24.8.6">
  <diagram name="Page-1" id="j3d1yoc-vnsnma1L-ord">
    <mxGraphModel dx="1050" dy="557" grid="0" gridSize="10" guides="1" tooltips="1" connect="1" arrows="1" fold="1" page="1" pageScale="1" pageWidth="827" pageHeight="1169" background="#FCFCFC" math="0" shadow="0">
      <root>
        <mxCell id="0" />
        <mxCell id="1" parent="0" />
        <mxCell id="5Qs8BHlZSZAIOy7MA_Xu-1" value="Draft" style="rounded=1;whiteSpace=wrap;html=1;fillColor=#dae8fc;strokeColor=#6c8ebf;glass=0;shadow=1;" parent="1" vertex="1">
          <mxGeometry x="40" y="110" width="120" height="60" as="geometry" />
        </mxCell>
        <mxCell id="5Qs8BHlZSZAIOy7MA_Xu-2" value="Processing" style="rounded=1;whiteSpace=wrap;html=1;shadow=1;fillColor=#ffe6cc;strokeColor=#d79b00;" parent="1" vertex="1">
          <mxGeometry x="200" y="110" width="120" height="60" as="geometry" />
        </mxCell>
        <mxCell id="5Qs8BHlZSZAIOy7MA_Xu-3" value="Unpaid" style="rounded=1;whiteSpace=wrap;html=1;shadow=1;fillColor=#fff2cc;strokeColor=#d6b656;" parent="1" vertex="1">
          <mxGeometry x="360" y="110" width="120" height="60" as="geometry" />
        </mxCell>
        <mxCell id="5Qs8BHlZSZAIOy7MA_Xu-4" value="Partially Paid" style="rounded=1;whiteSpace=wrap;html=1;shadow=1;fillColor=#fff2cc;strokeColor=#d6b656;" parent="1" vertex="1">
          <mxGeometry x="520" y="110" width="120" height="60" as="geometry" />
        </mxCell>
        <mxCell id="5Qs8BHlZSZAIOy7MA_Xu-5" value="Paid" style="rounded=1;whiteSpace=wrap;html=1;shadow=1;fillColor=#d5e8d4;strokeColor=#82b366;" parent="1" vertex="1">
          <mxGeometry x="680" y="110" width="120" height="60" as="geometry" />
        </mxCell>
        <mxCell id="5Qs8BHlZSZAIOy7MA_Xu-6" value="Overdue" style="rounded=1;whiteSpace=wrap;html=1;shadow=1;fillColor=#fff2cc;strokeColor=#d6b656;" parent="1" vertex="1">
          <mxGeometry x="363" y="249" width="120" height="60" as="geometry" />
        </mxCell>
        <mxCell id="5Qs8BHlZSZAIOy7MA_Xu-7" value="Cancelled" style="rounded=1;whiteSpace=wrap;html=1;shadow=1;fillColor=#bac8d3;strokeColor=#23445d;" parent="1" vertex="1">
          <mxGeometry x="441" y="391" width="120" height="60" as="geometry" />
        </mxCell>
        <mxCell id="5Qs8BHlZSZAIOy7MA_Xu-8" value="Delete" style="rounded=1;whiteSpace=wrap;html=1;shadow=1;fillColor=#fad9d5;strokeColor=#ae4132;" parent="1" vertex="1">
          <mxGeometry x="40" y="240" width="120" height="60" as="geometry" />
        </mxCell>
        <mxCell id="zHAJiwQpVswSxoQ023L4-7" value="" style="endArrow=classic;html=1;rounded=0;exitX=0.5;exitY=1;exitDx=0;exitDy=0;" edge="1" parent="1" source="5Qs8BHlZSZAIOy7MA_Xu-1" target="5Qs8BHlZSZAIOy7MA_Xu-8">
          <mxGeometry width="50" height="50" relative="1" as="geometry">
            <mxPoint x="387" y="315" as="sourcePoint" />
            <mxPoint x="437" y="265" as="targetPoint" />
          </mxGeometry>
        </mxCell>
        <mxCell id="zHAJiwQpVswSxoQ023L4-8" value="" style="endArrow=classic;html=1;rounded=0;entryX=0;entryY=0.5;entryDx=0;entryDy=0;" edge="1" parent="1" target="5Qs8BHlZSZAIOy7MA_Xu-7">
          <mxGeometry width="50" height="50" relative="1" as="geometry">
            <mxPoint x="260" y="170" as="sourcePoint" />
            <mxPoint x="437" y="265" as="targetPoint" />
            <Array as="points">
              <mxPoint x="260" y="421" />
            </Array>
          </mxGeometry>
        </mxCell>
        <mxCell id="zHAJiwQpVswSxoQ023L4-11" value="" style="endArrow=classic;html=1;rounded=0;entryX=0.75;entryY=0;entryDx=0;entryDy=0;" edge="1" parent="1" target="5Qs8BHlZSZAIOy7MA_Xu-7">
          <mxGeometry width="50" height="50" relative="1" as="geometry">
            <mxPoint x="440" y="172" as="sourcePoint" />
            <mxPoint x="437" y="265" as="targetPoint" />
            <Array as="points">
              <mxPoint x="440" y="209" />
              <mxPoint x="531" y="211" />
            </Array>
          </mxGeometry>
        </mxCell>
        <mxCell id="zHAJiwQpVswSxoQ023L4-12" value="" style="endArrow=classic;html=1;rounded=0;exitX=0.817;exitY=0.997;exitDx=0;exitDy=0;exitPerimeter=0;entryX=1;entryY=0.5;entryDx=0;entryDy=0;" edge="1" parent="1" source="5Qs8BHlZSZAIOy7MA_Xu-4" target="5Qs8BHlZSZAIOy7MA_Xu-7">
          <mxGeometry width="50" height="50" relative="1" as="geometry">
            <mxPoint x="387" y="315" as="sourcePoint" />
            <mxPoint x="437" y="265" as="targetPoint" />
            <Array as="points">
              <mxPoint x="618" y="421" />
            </Array>
          </mxGeometry>
        </mxCell>
        <mxCell id="zHAJiwQpVswSxoQ023L4-14" value="" style="endArrow=classic;html=1;rounded=0;exitX=0.197;exitY=1.023;exitDx=0;exitDy=0;exitPerimeter=0;" edge="1" parent="1" source="5Qs8BHlZSZAIOy7MA_Xu-3">
          <mxGeometry width="50" height="50" relative="1" as="geometry">
            <mxPoint x="396" y="175" as="sourcePoint" />
            <mxPoint x="384" y="247" as="targetPoint" />
          </mxGeometry>
        </mxCell>
        <mxCell id="zHAJiwQpVswSxoQ023L4-15" value="" style="endArrow=classic;html=1;rounded=0;entryX=0.342;entryY=0.02;entryDx=0;entryDy=0;entryPerimeter=0;" edge="1" parent="1" target="5Qs8BHlZSZAIOy7MA_Xu-7">
          <mxGeometry width="50" height="50" relative="1" as="geometry">
            <mxPoint x="389" y="310" as="sourcePoint" />
            <mxPoint x="437" y="265" as="targetPoint" />
            <Array as="points">
              <mxPoint x="389" y="352" />
              <mxPoint x="482" y="352" />
            </Array>
          </mxGeometry>
        </mxCell>
        <mxCell id="zHAJiwQpVswSxoQ023L4-16" value="" style="endArrow=classic;html=1;rounded=0;exitX=1;exitY=0.5;exitDx=0;exitDy=0;" edge="1" parent="1" source="5Qs8BHlZSZAIOy7MA_Xu-1" target="5Qs8BHlZSZAIOy7MA_Xu-2">
          <mxGeometry width="50" height="50" relative="1" as="geometry">
            <mxPoint x="387" y="315" as="sourcePoint" />
            <mxPoint x="437" y="265" as="targetPoint" />
          </mxGeometry>
        </mxCell>
        <mxCell id="zHAJiwQpVswSxoQ023L4-17" value="" style="endArrow=classic;html=1;rounded=0;exitX=1;exitY=0.5;exitDx=0;exitDy=0;entryX=0;entryY=0.5;entryDx=0;entryDy=0;" edge="1" parent="1" source="5Qs8BHlZSZAIOy7MA_Xu-2" target="5Qs8BHlZSZAIOy7MA_Xu-3">
          <mxGeometry width="50" height="50" relative="1" as="geometry">
            <mxPoint x="387" y="315" as="sourcePoint" />
            <mxPoint x="437" y="265" as="targetPoint" />
          </mxGeometry>
        </mxCell>
        <mxCell id="zHAJiwQpVswSxoQ023L4-18" value="" style="endArrow=classic;html=1;rounded=0;exitX=1;exitY=0.5;exitDx=0;exitDy=0;entryX=0;entryY=0.5;entryDx=0;entryDy=0;" edge="1" parent="1" source="5Qs8BHlZSZAIOy7MA_Xu-3" target="5Qs8BHlZSZAIOy7MA_Xu-4">
          <mxGeometry width="50" height="50" relative="1" as="geometry">
            <mxPoint x="387" y="315" as="sourcePoint" />
            <mxPoint x="437" y="265" as="targetPoint" />
          </mxGeometry>
        </mxCell>
        <mxCell id="zHAJiwQpVswSxoQ023L4-19" value="" style="endArrow=classic;html=1;rounded=0;exitX=1;exitY=0.5;exitDx=0;exitDy=0;" edge="1" parent="1" source="5Qs8BHlZSZAIOy7MA_Xu-4" target="5Qs8BHlZSZAIOy7MA_Xu-5">
          <mxGeometry width="50" height="50" relative="1" as="geometry">
            <mxPoint x="387" y="315" as="sourcePoint" />
            <mxPoint x="437" y="265" as="targetPoint" />
          </mxGeometry>
        </mxCell>
      </root>
    </mxGraphModel>
  </diagram>
</mxfile>
